<?xml version="1.0" encoding="utf-8"?><svg version="1.1" id="Layer_1" xmlns="http://www.w3.org/2000/svg" xmlns:xlink="http://www.w3.org/1999/xlink" x="0px" y="0px" viewBox="0 0 113.01 122.88" style="enable-background:new 0 0 113.01 122.88" xml:space="preserve"><g><path d="M44.13,102.06c-1.14,0.03-2.14-0.81-2.3-1.96c-0.17-1.2,0.64-2.31,1.82-2.54c-1.3-7.37-4.85-11.43-8.6-15.72 c-2.92-3.34-5.95-6.81-8.34-11.92c-2.35-5.03-3.64-10.23-3.6-15.63c0.05-5.4,1.42-10.96,4.4-16.71c0.02-0.04,0.04-0.07,0.06-0.11 l0,0c3.91-6.62,9.38-11.04,15.47-13.52c5.11-2.09,10.66-2.8,16.1-2.3c5.42,0.5,10.73,2.2,15.37,4.94 c5.9,3.49,10.75,8.67,13.42,15.21c1.44,3.54,2.42,7.49,2.54,11.82c0.12,4.31-0.62,8.96-2.61,13.88 c-2.66,6.59-6.18,10.68-9.47,14.51c-3.03,3.53-5.85,6.81-7.42,11.84c0.89,0.21,1.59,0.94,1.73,1.9c0.17,1.24-0.7,2.39-1.94,2.56 l-0.77,0.11c-0.14,1.09-0.23,2.26-0.27,3.51l0.25-0.04c1.24-0.17,2.39,0.7,2.56,1.94c0.17,1.24-0.7,2.39-1.94,2.56l-0.78,0.11 c0.01,0.15,0.02,0.3,0.03,0.45l0,0c0.07,0.88,0.08,1.73,0.03,2.54l0.13-0.02c1.25-0.15,2.38,0.74,2.54,1.98 c0.15,1.25-0.74,2.38-1.98,2.54l-1.68,0.21c-1.2,3.11-3.34,5.48-5.87,6.94c-1.74,1.01-3.67,1.59-5.61,1.71 c-1.97,0.12-3.96-0.25-5.78-1.13c-2.08-1.02-3.94-2.71-5.29-5.14c-0.65-0.33-1.13-0.97-1.23-1.75c-0.04-0.31-0.01-0.61,0.07-0.89 c-0.39-1.16-0.68-2.43-0.87-3.83l-0.07,0.01c-1.24,0.17-2.39-0.7-2.56-1.94c-0.17-1.24,0.7-2.39,1.94-2.56l0.54-0.08 C44.19,104.32,44.18,103.16,44.13,102.06L44.13,102.06z M2.18,58.86C1.01,58.89,0.04,57.98,0,56.81c-0.04-1.17,0.88-2.14,2.05-2.18 l8.7-0.3c1.17-0.04,2.14,0.88,2.18,2.05c0.04,1.17-0.88,2.14-2.05,2.18L2.18,58.86L2.18,58.86z M110.68,50.25 c1.16-0.12,2.2,0.73,2.32,1.89c0.12,1.16-0.73,2.2-1.89,2.32l-8.66,0.91c-1.16,0.12-2.2-0.73-2.32-1.89 c-0.12-1.16,0.73-2.2,1.89-2.32L110.68,50.25L110.68,50.25z M94.91,14.78c0.65-0.97,1.96-1.23,2.93-0.58 c0.97,0.65,1.23,1.96,0.58,2.93l-4.84,7.24c-0.65,0.97-1.96,1.23-2.93,0.58c-0.97-0.65-1.23-1.96-0.58-2.93L94.91,14.78 L94.91,14.78z M57.63,2.06c0.03-1.17,1-2.09,2.16-2.06c1.17,0.03,2.09,1,2.06,2.16l-0.22,8.7c-0.03,1.17-1,2.09-2.16,2.06 c-1.17-0.03-2.09-1-2.06-2.16L57.63,2.06L57.63,2.06z M13.88,15.53c-0.86-0.8-0.9-2.14-0.11-2.99c0.8-0.86,2.14-0.9,2.99-0.11 l6.37,5.94c0.86,0.8,0.9,2.14,0.11,2.99c-0.8,0.86-2.14,0.9-2.99,0.11L13.88,15.53L13.88,15.53z M47.88,96.95l18.49-2.63 c1.59-6.7,5.05-10.73,8.8-15.08c3.08-3.58,6.36-7.4,8.76-13.34c1.76-4.35,2.41-8.43,2.31-12.19c-0.1-3.75-0.96-7.21-2.24-10.34 c-2.3-5.63-6.51-10.11-11.65-13.15c-4.11-2.43-8.8-3.94-13.59-4.37c-4.77-0.44-9.64,0.19-14.13,2.02 c-5.26,2.15-9.99,5.97-13.39,11.72c-2.64,5.12-3.86,10.02-3.9,14.73c-0.04,4.74,1.11,9.33,3.2,13.8c2.13,4.56,4.97,7.8,7.69,10.92 C42.47,83.9,46.48,88.49,47.88,96.95L47.88,96.95z M65.62,99.02l-17.27,2.45c0.05,1.1,0.07,2.25,0.05,3.47l17.05-2.42 C65.47,101.29,65.52,100.12,65.62,99.02L65.62,99.02z M48.49,109.52c0.12,0.92,0.3,1.76,0.53,2.54l16.55-2.04 c0.11-0.86,0.13-1.77,0.05-2.74l0,0l0-0.02l-0.01-0.17L48.49,109.52L48.49,109.52z M51.37,116.36c0.64,0.67,1.35,1.19,2.1,1.55 c1.15,0.56,2.42,0.79,3.67,0.72c1.29-0.08,2.57-0.47,3.74-1.15c1.1-0.64,2.09-1.53,2.88-2.65L51.37,116.36L51.37,116.36z"/></g></svg>