<svg width="190" height="220" xmlns="http://www.w3.org/2000/svg">

 <g>
  <title>Layer 1</title>
  <g stroke="null" id="svg_16">
   <g stroke="null" transform="matrix(2 0 0 2 0 0)" id="svg_5">
    <path stroke="null" id="svg_6" d="m48.45853,36.44125c-9.278,0 -16.804,7.525 -16.804,16.81c0,3.056 0.857,5.898 2.24,8.391c4.126,7.438 5.221,11.613 5.896,15.654c0.564,3.387 1.344,4.174 3.902,4.174c1.091,0 2.869,0 4.766,0c1.901,0 3.683,0 4.767,0c2.563,0 3.344,-0.787 3.907,-4.174c0.677,-4.043 1.771,-8.219 5.896,-15.654c1.388,-2.492 2.24,-5.334 2.24,-8.391c0.003,-9.286 -7.523,-16.81 -16.81,-16.81z" fill="#FFE75A"/>
    <path stroke="null" id="svg_7" d="m54.47153,82.68725l-12.013,0c-0.5,0 -0.903,0.402 -0.903,0.9l0,0.602c0,0.496 0.403,0.9 0.903,0.9l12.013,0c0.493,0 0.897,-0.404 0.897,-0.9l0,-0.602c0.002,-0.498 -0.404,-0.9 -0.897,-0.9z" fill="#FFE75A"/>
    <path stroke="null" id="svg_8" d="m54.47153,86.29025l-12.013,0c-0.5,0 -0.903,0.4 -0.903,0.9l0,0.602c0,0.496 0.403,0.898 0.903,0.898l12.013,0c0.493,0 0.897,-0.402 0.897,-0.898l0,-0.602c0.002,-0.499 -0.404,-0.9 -0.897,-0.9z" fill="#FFE75A"/>
    <path stroke="null" id="svg_9" d="m54.47153,89.89425l-12.013,0c-0.5,0 -0.903,0.402 -0.903,0.9l0,0.602c0,0.498 0.403,0.9 0.903,0.9l12.013,0c0.493,0 0.897,-0.402 0.897,-0.9l0,-0.602c0.002,-0.498 -0.404,-0.9 -0.897,-0.9z" fill="#FFE75A"/>
    <path stroke="null" id="svg_10" d="m43.95853,93.49725l9.013,0c0,1.801 -2.406,3.002 -4.513,3.002c-2.097,0 -4.5,-1.201 -4.5,-3.002z" fill="#FFE75A"/>
    <path stroke="null" id="svg_11" d="m67.76453,24.60725c1.532,-2.683 -2.605,-5.092 -4.15,-2.414c-0.809,1.399 -6.662,11.541 -6.662,11.541l4.162,2.402c0,0 5.199,-9.017 6.646,-11.518c0.003,-0.001 0.003,-0.003 0.003,-0.003l0.001,-0.008l0,0z" fill="#FFE75A"/>
    <path stroke="null" id="svg_12" d="m77.13353,34.00025l0,0l-0.003,0.003c-0.008,0.001 -0.008,0.001 -0.008,0.001c-2.112,1.221 -11.166,6.449 -11.166,6.449l2.397,4.16c0,0 9.076,-5.239 11.188,-6.458c2.686,-1.548 0.275,-5.689 -2.408,-4.155z" fill="#FFE75A"/>
    <path stroke="null" id="svg_13" d="m50.95253,18.82425c0,0.729 0,12.812 0,12.812l-4.806,0c0,0 0,-12.084 0,-12.812c0,-3.098 4.806,-3.098 4.806,0z" fill="#FFE75A"/>
    <path stroke="null" id="svg_14" d="m29.23753,24.60725c-1.532,-2.683 2.606,-5.092 4.152,-2.414c0.808,1.399 6.661,11.541 6.661,11.541l-4.158,2.402c0,0 -5.208,-9.017 -6.652,-11.518c0,-0.001 0,-0.003 0,-0.003l-0.003,-0.008l0,0z" fill="#FFE75A"/>
    <path stroke="null" id="svg_15" d="m19.87153,34.00025l0,0l0,0.003c0.007,0.001 0.007,0.001 0.007,0.001c2.116,1.221 11.167,6.449 11.167,6.449l-2.402,4.16c0,0 -9.076,-5.239 -11.187,-6.458c-2.683,-1.548 -0.273,-5.689 2.415,-4.155z" fill="#FFE75A"/>
   </g>
  </g>
  <line stroke-width="18" stroke="#ff0000" stroke-linecap="undefined" stroke-linejoin="undefined" id="svg_17" y2="191" x2="160" y1="35" x1="35" fill="none"/>
 </g>
</svg>