<?xml version="1.0" encoding="iso-8859-1"?>
<!-- Generator: Adobe Illustrator 19.0.0, SVG Export Plug-In . SVG Version: 6.00 Build 0)  -->
<svg version="1.1" id="Layer_1" xmlns="http://www.w3.org/2000/svg" xmlns:xlink="http://www.w3.org/1999/xlink" x="0px" y="0px"
	 viewBox="0 0 512 512" style="enable-background:new 0 0 512 512;" xml:space="preserve">
<polygon style="fill:#FFCC75;" points="47.202,417.53 94.404,464.732 47.202,511.945 0,464.743 "/>
<polygon style="fill:#082947;" points="236.149,414.811 212.545,438.4 111.564,368.892 166.634,313.823 "/>
<polygon style="fill:#274B6D;" points="182.37,329.559 127.301,384.628 73.529,299.384 97.126,275.788 "/>
<polygon style="fill:#FF9D49;" points="512,118.078 452.926,59.003 294.044,186.413 166.634,345.296 251.886,430.548 "/>
<path style="fill:#274B6D;" d="M143.037,368.892l69.508,69.508c0,0-61.136,0.802-102.397,42.063l-39.35-39.333l20.383-51.855
	L143.037,368.892z"/>
<polygon style="fill:#FFCC75;" points="393.977,0.055 81.39,260.051 166.634,345.296 452.926,59.003 "/>
<path style="fill:#185F8D;" d="M73.529,299.384l69.508,69.508l-72.239,72.239L31.458,401.79
	C72.719,360.529,73.529,299.384,73.529,299.384z"/>
<g>
</g>
<g>
</g>
<g>
</g>
<g>
</g>
<g>
</g>
<g>
</g>
<g>
</g>
<g>
</g>
<g>
</g>
<g>
</g>
<g>
</g>
<g>
</g>
<g>
</g>
<g>
</g>
<g>
</g>
</svg>
