<?xml version="1.0" encoding="iso-8859-1"?>
<!-- Generator: Adobe Illustrator 19.0.0, SVG Export Plug-In . SVG Version: 6.00 Build 0)  -->
<svg version="1.1" id="Layer_1" xmlns="http://www.w3.org/2000/svg" xmlns:xlink="http://www.w3.org/1999/xlink" x="0px" y="0px"
	 viewBox="0 0 512 512" style="enable-background:new 0 0 512 512;" xml:space="preserve">
<circle style="fill:#FF5419;" cx="256" cy="256" r="256"/>
<path style="fill:#BC2E0D;" d="M509.166,217.838L407.174,115.846L94.61,402.208l103.127,103.128
	C216.454,509.692,235.956,512,256,512c141.384,0,256-114.616,256-256C512,243.031,511.026,230.29,509.166,217.838z"/>
<path style="fill:#FFEDB5;" d="M430.916,139.588l-40.415-40.415c-7.385-7.385-19.199-7.877-27.172-1.131L161.156,269.114
	l-16.637,83.184l-15.629,15.629l-34.282,34.282l49.911,16.637l17.646-17.646l15.629-15.629l83.184-16.637L432.045,166.76
	C438.793,158.787,438.301,146.973,430.916,139.588z"/>
<path style="fill:#FEE187;" d="M430.916,139.588l-20.08-20.08L118.205,410.072l26.315,8.771l17.646-17.646l15.629-15.629
	l83.184-16.637l171.068-202.173C438.793,158.787,438.301,146.973,430.916,139.588z"/>
<path style="fill:#FFC61B;" d="M260.977,368.933l-99.821-99.821L363.329,98.044c7.973-6.747,19.787-6.256,27.172,1.131
	l40.415,40.415c7.385,7.385,7.877,19.199,1.131,27.172L260.977,368.933z"/>
<path style="fill:#E5AB07;" d="M430.916,139.588l-20.08-20.08L210.487,318.443l50.491,50.491l171.068-202.173
	C438.793,158.787,438.301,146.973,430.916,139.588z"/>
<polygon style="fill:#FFC61B;" points="94.61,402.208 144.52,418.844 161.156,402.208 127.883,368.933 "/>
<polygon style="fill:#E5AB07;" points="118.205,410.072 144.52,418.844 161.156,402.208 143.703,384.755 "/>
<g>
</g>
<g>
</g>
<g>
</g>
<g>
</g>
<g>
</g>
<g>
</g>
<g>
</g>
<g>
</g>
<g>
</g>
<g>
</g>
<g>
</g>
<g>
</g>
<g>
</g>
<g>
</g>
<g>
</g>
</svg>
